<?xml version="1.0" encoding="UTF-8" standalone="no"?>
<svg
   xmlns:dc="http://purl.org/dc/elements/1.1/"
   xmlns:cc="http://creativecommons.org/ns#"
   xmlns:rdf="http://www.w3.org/1999/02/22-rdf-syntax-ns#"
   xmlns:svg="http://www.w3.org/2000/svg"
   xmlns="http://www.w3.org/2000/svg"
   xmlns:sodipodi="http://sodipodi.sourceforge.net/DTD/sodipodi-0.dtd"
   xmlns:inkscape="http://www.inkscape.org/namespaces/inkscape"
   version="1.1"
   id="svg2"
   viewBox="0 0 12 12"
   height="12"
   width="12"
   inkscape:version="0.91 r13725"
   sodipodi:docname="reddit.svg">
  <sodipodi:namedview
     pagecolor="#ffffff"
     bordercolor="#666666"
     borderopacity="1"
     objecttolerance="10"
     gridtolerance="10"
     guidetolerance="10"
     inkscape:pageopacity="0"
     inkscape:pageshadow="2"
     inkscape:window-width="1449"
     inkscape:window-height="480"
     id="namedview14139"
     showgrid="false"
     inkscape:zoom="19.666667"
     inkscape:cx="0.83898305"
     inkscape:cy="6"
     inkscape:window-x="0"
     inkscape:window-y="24"
     inkscape:window-maximized="0"
     inkscape:current-layer="svg2" />
  <metadata
     id="metadata10">
    <rdf:RDF>
      <cc:Work
         rdf:about="">
        <dc:format>image/svg+xml</dc:format>
        <dc:type
           rdf:resource="http://purl.org/dc/dcmitype/StillImage" />
        <dc:title></dc:title>
      </cc:Work>
    </rdf:RDF>
  </metadata>
  <defs
     id="defs8" />
  <path
     style="fill:#ffffff;fill-opacity:1"
     id="path4"
     d="m 11.70339,5.8429449 c 0,-0.6079167 -0.571166,-1.1020833 -1.273146,-1.1020833 -0.342604,0 -0.6531042,0.1191666 -0.8816672,0.3108333 -0.8672915,-0.49625 -2.0407705,-0.8120833 -3.3402705,-0.8525 l 0.7106041,-1.9454167 1.9243333,0.3920834 -0.00287,0.024167 c 0,0.4970834 0.4671871,0.90125 1.0417081,0.90125 0.5740422,0 1.0407502,-0.4041666 1.0407502,-0.90125 0,-0.4970833 -0.467187,-0.9016666 -1.0407502,-0.9016666 -0.440833,0 -0.8165,0.2391666 -0.9683956,0.5745833 L 6.8393688,1.9200286 c -0.090562,-0.019167 -0.1825625,0.02625 -0.2108334,0.10375 l -0.7925416,2.169583 c -1.3598749,0.014167 -2.5918124,0.3325 -3.4979166,0.84375 -0.227125,-0.1825 -0.5285207,-0.2966667 -0.8620207,-0.2966667 -0.70197915,0 -1.27266665,0.4945833 -1.27266665,1.1025 0,0.4041667 0.2553958,0.7545833 0.6310625,0.94625 -0.024917,0.1175 -0.041208,0.23625 -0.041208,0.3570833 0,1.6295834 2.30383325,2.9554168 5.13618735,2.9554168 2.832354,0 5.1366673,-1.3258334 5.1366673,-2.9554168 0,-0.1141666 -0.01389,-0.2266666 -0.03594,-0.3375 0.398666,-0.18625 0.673228,-0.5466666 0.673228,-0.9658333 z M 3.450223,6.5996116 c 0,-0.3616667 0.3402084,-0.65625 0.7580417,-0.65625 0.4178333,0 0.7575625,0.2945833 0.7575625,0.65625 0,0.3616666 -0.3397292,0.6558333 -0.7575625,0.6558333 -0.4178333,0 -0.7580417,-0.2941667 -0.7580417,-0.6558333 z m 4.3417291,1.9454166 c -0.3818958,0.3304167 -0.9813333,0.49125 -1.8323333,0.49125 l -0.00623,-0.00125 -0.00623,0.00125 c -0.851479,0 -1.4509165,-0.1608333 -1.8323332,-0.49125 -0.06948,-0.06 -0.06948,-0.1579166 0,-0.2179166 0.069483,-0.060417 0.1825663,-0.060417 0.2520455,0 0.3114621,0.2695833 0.8284828,0.4004166 1.5802953,0.4004166 l 0.00623,0.00125 0.00623,-0.00125 c 0.7518125,0 1.2688333,-0.13125 1.5802916,-0.4008333 0.069479,-0.060417 0.1825625,-0.06 0.2520417,0 0.069479,0.060417 0.069479,0.1579167 0,0.2183333 z M 7.7013896,7.2554449 c -0.4178333,0 -0.7575625,-0.2941667 -0.7575625,-0.6558333 0,-0.3616667 0.3397292,-0.65625 0.7575625,-0.65625 0.4178333,0 0.7575625,0.2945833 0.7575625,0.65625 0,0.3616666 -0.3397292,0.6558333 -0.7575625,0.6558333 z"
     inkscape:connector-curvature="0" />
</svg>
