<svg width="23" height="23" viewBox="0 0 23 23" xmlns="http://www.w3.org/2000/svg"><title>Fill 19</title><path d="M9.835 17.05c-4.128 0-7.476-3.29-7.476-7.352 0-4.064 3.348-7.359 7.476-7.359 4.13 0 7.477 3.295 7.477 7.359 0 4.063-3.348 7.351-7.477 7.351zm11.966 3.807l-5.422-5.337c1.42-1.543 2.292-3.577 2.292-5.822C18.67 4.893 14.715 1 9.835 1 4.955 1 1 4.893 1 9.698c0 4.798 3.956 8.69 8.835 8.69a8.875 8.875 0 0 0 5.562-1.942l5.443 5.356a.685.685 0 0 0 .96 0 .66.66 0 0 0 0-.945z" stroke="#333" fill="#333" fill-rule="evenodd"/></svg>