<svg xmlns="http://www.w3.org/2000/svg" xmlns:xlink="http://www.w3.org/1999/xlink" width="352" height="262" viewBox="0 0 352 262"><defs><path id="a" d="M0 0h352v262H0z"/></defs><clipPath id="b"><use xlink:href="#a" overflow="visible"/></clipPath><path clip-path="url(#b)" fill="#EAEAEA" d="M0 0h352v262H0z"/><path clip-path="url(#b)" fill="#FFF" d="M304.559 45.085c6.185 0 11.19-5.013 11.19-11.196 0-6.184-5.007-11.196-11.19-11.196-5.293 0-9.715 3.696-10.871 8.645L238.52 42.534c-2.655-5.232-7.643-9.065-13.595-10.141l-.868-24.326c4.562-1.951 7.771-6.479 7.771-11.767-.002-7.065-5.726-12.793-12.792-12.793-7.059 0-12.789 5.729-12.789 12.796 0 6.047 4.204 11.08 9.843 12.416l.854 23.932a19.09 19.09 0 0 0-11.389 8.076l-45.22-27.363c.208-.858.354-1.745.354-2.667 0-6.188-5.01-11.196-11.19-11.196-6.174 0-11.187 5.01-11.187 11.196s5.01 11.196 11.187 11.196c2.335 0 4.5-.719 6.288-1.939l46.891 28.378c-.14.925-.229 1.867-.229 2.83 0 2.792.613 5.436 1.689 7.824l-71.242 71.106a18.992 18.992 0 0 0-12.068-4.308 18.973 18.973 0 0 0-10.521 3.172L76.503 95.133c1.785-2.536 2.854-5.615 2.854-8.952 0-8.613-6.977-15.593-15.585-15.593s-15.583 6.98-15.583 15.593 6.977 15.594 15.583 15.594c2.355 0 4.572-.562 6.574-1.501l34.376 34.4a18.976 18.976 0 0 0-2.97 10.198c0 1.44.174 2.838.476 4.187L53.51 165.438a11.163 11.163 0 0 0-9.321-5.014c-6.18 0-11.19 5.014-11.19 11.193 0 6.188 5.01 11.191 11.19 11.191 5.604 0 10.202-4.131 11.019-9.508l50.41-16.947a19.026 19.026 0 0 0 12.12 7.325l-.008 28.656c-5.717 1.271-9.997 6.363-9.997 12.47 0 7.066 5.726 12.793 12.79 12.793s12.79-5.729 12.79-12.793c0-5.213-3.124-9.678-7.591-11.672l.011-29.84a19.1 19.1 0 0 0 12.375-10.379l64.478 12.99c-.1.68-.212 1.349-.212 2.051 0 8.203 6.649 14.857 14.851 14.857 1.082 0 2.135-.131 3.148-.353l10.544 26.062c-3.042 2.424-5.03 6.105-5.03 10.307 0 2.146.557 4.143 1.469 5.931l-21.395 22.45c-.1-.038-.184-.102-.284-.134-5.812-2.097-12.224.928-14.311 6.743-2.093 5.814.925 12.229 6.739 14.318 5.817 2.096 12.225-.928 14.313-6.744 1.077-3 .779-6.147-.545-8.798l21.094-22.143c1.836.966 3.892 1.56 6.099 1.56 3.467 0 6.59-1.359 8.942-3.545l39.679 26.686c-.403 1.146-.664 2.359-.664 3.654 0 6.182 5.013 11.19 11.188 11.19 6.178 0 11.189-5.015 11.189-11.19 0-6.186-5.013-11.197-11.189-11.197-1.936 0-3.734.541-5.326 1.41l-40.908-27.517c.176-.864.277-1.76.277-2.683 0-7.291-5.904-13.195-13.189-13.195-.23 0-.442.053-.668.061l-10.879-27.066c2.799-2.699 4.553-6.475 4.553-10.671 0-8.205-6.646-14.857-14.85-14.857-4.615 0-8.695 2.154-11.416 5.468l-65.915-13.486c0-.068.009-.137.009-.205 0-3.062-.736-5.943-2.014-8.506l70.991-70.944c3.366 2.989 7.785 4.821 12.642 4.821 3.92 0 7.561-1.188 10.59-3.218l36.808 36.826a12.719 12.719 0 0 0-1.13 5.209c0 7.071 5.726 12.796 12.79 12.796 7.059 0 12.786-5.727 12.786-12.796 0-7.067-5.729-12.796-12.786-12.796-2.281 0-4.396.646-6.244 1.693l-36.656-36.678a18.968 18.968 0 0 0 2.925-10.118c0-.299-.035-.585-.051-.881l54.26-11.007c1.9 3.454 5.53 5.817 9.749 5.817"/></svg>