<svg xmlns="http://www.w3.org/2000/svg" width="12" height="12" viewBox="0 0 12 12"><path fill="#FFF" d="M9.874 3.476c.005.097.007.194.007.292 0 2.982-2.271 6.422-6.421 6.422A6.383 6.383 0 0 1 .001 9.175c.177.021.357.03.538.03 1.058 0 2.03-.359 2.803-.965a2.26 2.26 0 0 1-2.109-1.566 2.276 2.276 0 0 0 1.018-.039 2.261 2.261 0 0 1-1.81-2.213v-.029c.305.169.653.271 1.022.283a2.26 2.26 0 0 1-.698-3.013A6.409 6.409 0 0 0 5.417 4.02a2.256 2.256 0 0 1 2.199-2.77 2.26 2.26 0 0 1 1.647.711c.514-.1.996-.289 1.434-.548-.17.528-.527.97-.993 1.25A4.506 4.506 0 0 0 11 2.308a4.58 4.58 0 0 1-1.126 1.168z"/></svg>